<svg width="24" height="24" viewBox="0 0 24 24" fill="none" xmlns="http://www.w3.org/2000/svg">
<rect x="9" y="9" width="13" height="13" rx="2" stroke="#FF5000" stroke-width="2"/>
<path d="M5 16C5.55228 16 6 15.5523 6 15C6 14.4477 5.55228 14 5 14V16ZM14 5C14 5.55228 14.4477 6 15 6C15.5523 6 16 5.55228 16 5H14ZM4 3H13V1H4V3ZM3 13V4H1V13H3ZM5 14H4V16H5V14ZM14 4V5H16V4H14ZM1 13C1 14.6569 2.34315 16 4 16V14C3.44772 14 3 13.5523 3 13H1ZM13 3C13.5523 3 14 3.44772 14 4H16C16 2.34315 14.6569 1 13 1V3ZM4 1C2.34315 1 1 2.34315 1 4H3C3 3.44772 3.44772 3 4 3V1Z" fill="#FF5000"/>
</svg>
