<svg width="25" height="24" viewBox="0 0 25 24" fill="none" xmlns="http://www.w3.org/2000/svg">
<path fill-rule="evenodd" clip-rule="evenodd" d="M22.7071 1.54292C23.006 1.84175 23.0847 2.29618 22.9038 2.67811L13.9038 21.6781C13.7229 22.0598 13.3218 22.2868 12.9015 22.2452C12.4812 22.2035 12.1323 21.9023 12.0299 21.4926L10.1754 14.0746L2.75749 12.2202C2.34773 12.1177 2.04651 11.7689 2.00489 11.3486C1.96327 10.9282 2.19022 10.5271 2.57194 10.3463L21.5719 1.34629C21.9539 1.16538 22.4083 1.24409 22.7071 1.54292ZM5.95337 10.9576L11.2426 12.2799C11.6008 12.3695 11.8806 12.6492 11.9702 13.0075L13.2925 18.2967L19.8976 4.35241L5.95337 10.9576Z" fill="#FF5000"/>
</svg>
