<svg width="24" height="24" viewBox="0 0 24 24" fill="none" xmlns="http://www.w3.org/2000/svg">
<path fill-rule="evenodd" clip-rule="evenodd" d="M8.91455 14.375H7.79105L6.12994 11.6526V14.375H5V10H6.12994L7.78783 12.7224V10H8.91455V14.375ZM12.4588 12.521H10.6818V13.5637H12.7807V14.375H9.55188V10H12.7872V10.8143H10.6818V11.7368H12.4588V12.521ZM17.8798 10L17.3422 12.7434L16.6887 10H15.7294L15.0855 12.7434L14.5479 10H13.4244L14.4224 14.375H15.591L16.2058 11.881L16.8336 14.375H18.0054L19.0001 10H17.8798Z" fill="#F7B500"/>
<path fill-rule="evenodd" clip-rule="evenodd" d="M12 3C7.02944 3 3 7.02944 3 12C3 16.9706 7.02944 21 12 21C16.9706 21 21 16.9706 21 12C21 7.02944 16.9706 3 12 3ZM1 12C1 5.92487 5.92487 1 12 1C18.0751 1 23 5.92487 23 12C23 18.0751 18.0751 23 12 23C5.92487 23 1 18.0751 1 12Z" fill="#F7B500"/>
</svg>
