<svg width="25" height="24" viewBox="0 0 25 24" fill="none" xmlns="http://www.w3.org/2000/svg">
<path d="M14.5494 6C15.5262 6.19057 16.4238 6.66826 17.1275 7.37194C17.8312 8.07561 18.3089 8.97326 18.4994 9.95M14.5494 2C16.5787 2.22544 18.471 3.13417 19.9157 4.57701C21.3603 6.01984 22.2715 7.91101 22.4994 9.94M21.4994 17.92V20.92C21.5006 21.1985 21.4435 21.4742 21.332 21.7293C21.2204 21.9845 21.0567 22.2136 20.8515 22.4019C20.6463 22.5901 20.404 22.7335 20.1402 22.8227C19.8764 22.9119 19.5968 22.9451 19.3194 22.92C16.2423 22.5856 13.2864 21.5341 10.6894 19.85C8.27327 18.3147 6.22478 16.2662 4.68945 13.85C2.99942 11.2412 1.94769 8.27099 1.61944 5.18C1.59446 4.90347 1.62732 4.62476 1.71595 4.36162C1.80457 4.09849 1.94702 3.85669 2.13421 3.65162C2.32141 3.44655 2.54925 3.28271 2.80324 3.17052C3.05722 3.05833 3.33179 3.00026 3.60945 3H6.60945C7.09475 2.99522 7.56524 3.16708 7.93321 3.48353C8.30118 3.79999 8.54152 4.23945 8.60944 4.72C8.73607 5.68007 8.97089 6.62273 9.30945 7.53C9.44399 7.88792 9.47311 8.27691 9.39335 8.65088C9.3136 9.02485 9.12831 9.36811 8.85944 9.64L7.58945 10.91C9.013 13.4135 11.0859 15.4864 13.5894 16.91L14.8594 15.64C15.1313 15.3711 15.4746 15.1858 15.8486 15.1061C16.2225 15.0263 16.6115 15.0555 16.9694 15.19C17.8767 15.5286 18.8194 15.7634 19.7794 15.89C20.2652 15.9585 20.7088 16.2032 21.026 16.5775C21.3431 16.9518 21.5116 17.4296 21.4994 17.92Z" stroke="#FF5000" stroke-width="2" stroke-linecap="round" stroke-linejoin="round"/>
</svg>
