<svg width="56" height="56" viewBox="0 0 56 56" fill="none" xmlns="http://www.w3.org/2000/svg">
<rect width="56" height="56" rx="12" fill="#F7F7F7"/>
<path fill-rule="evenodd" clip-rule="evenodd" d="M23 37C23 35.8954 23.8954 35 25 35C26.1046 35 27 35.8954 27 37C27 38.1046 26.1046 39 25 39C23.8954 39 23 38.1046 23 37Z" fill="#3E3E3E"/>
<path fill-rule="evenodd" clip-rule="evenodd" d="M34 37C34 35.8954 34.8954 35 36 35C37.1046 35 38 35.8954 38 37C38 38.1046 37.1046 39 36 39C34.8954 39 34 38.1046 34 37Z" fill="#3E3E3E"/>
<path fill-rule="evenodd" clip-rule="evenodd" d="M16 17C16 16.4477 16.4477 16 17 16H21C21.4766 16 21.887 16.3364 21.9806 16.8037L22.8204 21H39C39.298 21 39.5805 21.1329 39.7705 21.3626C39.9605 21.5922 40.0381 21.8946 39.9823 22.1873L38.3809 30.5848C38.2437 31.2754 37.868 31.8958 37.3195 32.3373C36.7738 32.7766 36.0916 33.011 35.3914 33H25.6886C24.9884 33.011 24.3062 32.7766 23.7605 32.3373C23.2122 31.8959 22.8366 31.2759 22.6993 30.5857C22.6993 30.5854 22.6994 30.5859 22.6993 30.5857L21.0288 22.2392C21.022 22.2116 21.0164 22.1835 21.012 22.1551L20.1803 18H17C16.4477 18 16 17.5523 16 17ZM23.2207 23L24.6608 30.1952C24.7066 30.4254 24.8318 30.6322 25.0146 30.7793C25.1974 30.9265 25.4262 31.0047 25.6608 31.0002L25.68 31H35.4L35.4192 31.0002C35.6538 31.0047 35.8826 30.9265 36.0654 30.7793C36.2474 30.6328 36.3723 30.4273 36.4185 30.1984L37.7913 23H23.2207Z" fill="#3E3E3E"/>
</svg>
